<?xml version="1.0" encoding="UTF-8"?><svg id="Layer_1" xmlns="http://www.w3.org/2000/svg" viewBox="0 0 1669.09 1080"><defs><style>.cls-1{opacity:.65;}.cls-1,.cls-2,.cls-3,.cls-4,.cls-5,.cls-6,.cls-7,.cls-8,.cls-9,.cls-10,.cls-11,.cls-12,.cls-13,.cls-14,.cls-15,.cls-16,.cls-17,.cls-18,.cls-19,.cls-20,.cls-21,.cls-22{stroke-width:0px;}.cls-1,.cls-2,.cls-3,.cls-4,.cls-5,.cls-6,.cls-7,.cls-8,.cls-9,.cls-10,.cls-11,.cls-12,.cls-13,.cls-14,.cls-15,.cls-16,.cls-17,.cls-19,.cls-20,.cls-21{fill:#64f;}.cls-2{opacity:.35;}.cls-3{opacity:.75;}.cls-4{opacity:.7;}.cls-5{opacity:.2;}.cls-6{opacity:.8;}.cls-7{opacity:.85;}.cls-8{opacity:.4;}.cls-9{opacity:.1;}.cls-10{opacity:.15;}.cls-11{opacity:.9;}.cls-12{opacity:.05;}.cls-13{opacity:.25;}.cls-14{opacity:.45;}.cls-15{opacity:.5;}.cls-16{opacity:.95;}.cls-17{opacity:.55;}.cls-19{opacity:.6;}.cls-20{opacity:.3;}.cls-22{fill:#fff;}</style></defs><path class="cls-20" d="M1664.74,1080c1.45-.9,2.9-1.8,4.35-2.71v-2.81c-2.95,1.87-5.92,3.71-8.9,5.52h4.55Z"/><rect class="cls-18" width="1669.09" height="1080"/><rect class="cls-18" width="1669.09" height="1080"/><rect class="cls-18" width="1669.09" height="1080"/><rect class="cls-18" width="1669.09" height="1080"/><path class="cls-21" d="M1494.5,438.64l28.37-28.37.02-114.21h-320.65v129.18c-20.91-9.68-43.37-14.59-66.8-14.59-88.4,0-160.32,71.93-160.32,160.35s71.92,160.32,160.32,160.32c25.26,0,49.44-5.73,71.88-17.04l11.38,11.38c37.59,37.59,87.56,58.29,140.71,58.29,109.73,0,199-89.27,199-199,0-53.15-20.7-103.12-58.29-140.71l-5.6-5.6ZM1359.4,781.56c-52.51,0-101.88-20.45-139.02-57.59l-12.6-12.6-.77.39c-22.32,11.39-46.4,17.17-71.57,17.17-87.09,0-157.94-70.85-157.94-157.94s70.85-157.96,157.94-157.96c23.71,0,46.41,5.1,67.48,15.16l1.7.81v-130.56h315.89l-.02,110.84-29.35,29.35,7.29,7.29c37.14,37.14,57.59,86.51,57.59,139.02,0,108.41-88.2,196.62-196.62,196.62Z"/><path class="cls-21" d="M1548.37,420.84l.02-150.28h-371.67v119.23c-13.5-3.08-27.39-4.64-41.3-4.64-102.47,0-185.83,83.37-185.83,185.85s83.36,185.83,185.83,185.83c22.78,0,45.04-4.1,66.18-12.19,42.3,41.8,98.3,64.82,157.78,64.82,123.79,0,224.5-100.71,224.5-224.5,0-53.59-19.1-105.33-53.81-145.83l18.28-18.28ZM1581.52,584.95c0,122.48-99.64,222.12-222.12,222.12-59.11,0-114.74-22.97-156.65-64.67l-.55-.55-.72.28c-21.08,8.16-43.3,12.3-66.04,12.3-101.15,0-183.45-82.29-183.45-183.45s82.29-183.47,183.45-183.47c14.23,0,28.43,1.65,42.22,4.91l1.46.35v-119.85h366.91l-.03,146.92-19.15,19.15.72.84c34.79,40.19,53.95,91.73,53.95,145.11Z"/><path class="cls-16" d="M1573.88,431.4l.03-186.36h-422.69v115.18c-5.29-.39-10.6-.59-15.79-.59-116.53,0-211.33,94.81-211.33,211.36s94.8,211.34,211.33,211.34c20.37,0,40.54-2.92,59.98-8.68,45.37,39.54,103.58,61.31,163.99,61.31,137.86,0,250.01-112.15,250.01-250.01,0-51.96-15.69-101.63-45.37-143.7l9.84-9.84ZM1607.03,584.95c0,136.54-111.09,247.63-247.63,247.63-60.05,0-117.91-21.72-162.92-61.15l-.49-.44-.63.19c-19.41,5.82-39.57,8.77-59.92,8.77-115.22,0-208.95-93.74-208.95-208.95s93.74-208.98,208.95-208.98c5.56,0,11.24.23,16.89.68l1.29.1v-115.38h417.92l-.03,182.99-10.57,10.57.58.82c29.77,41.85,45.51,91.35,45.51,143.15Z"/><path class="cls-11" d="M1599.38,441.97l.04-222.43h-473.7v114.81c-60.92,2.47-117.88,28.05-160.48,72.1-42.98,44.44-66.65,102.88-66.65,164.55,0,130.59,106.25,236.84,236.84,236.84,18.13,0,36.23-2.08,53.81-6.18,48.79,38.47,107.62,58.8,170.16,58.8,151.92,0,275.51-123.59,275.51-275.51,0-49.61-13.23-98.09-38.26-140.26l2.73-2.72ZM1632.53,584.95c0,150.61-122.53,273.13-273.13,273.13-62.19,0-120.67-20.28-169.13-58.65l-.45-.36-.56.13c-17.57,4.14-35.68,6.24-53.82,6.24-129.28,0-234.46-105.18-234.46-234.46,0-61.05,23.43-118.9,65.98-162.9,42.44-43.88,99.26-69.25,160-71.42l1.15-.04v-114.72h468.94l-.04,219.06-3.34,3.34.48.8c25.12,41.99,38.39,90.34,38.39,139.83Z"/><path class="cls-7" d="M1624.93,194.03h-524.72v116.95c-129.55,17.46-227.13,129.05-227.13,260,0,144.66,117.69,262.35,262.35,262.35,15.95,0,31.98-1.47,47.66-4.36,51.37,37.28,112.32,56.98,176.3,56.98,165.98,0,301.02-135.04,301.02-301.02,0-49.73-12.28-98.87-35.53-142.15l.04-248.76ZM1658.04,584.95c0,164.67-133.97,298.64-298.64,298.64-63.65,0-124.27-19.65-175.32-56.83l-.42-.3-.5.09c-15.7,2.93-31.76,4.41-47.73,4.41-143.34,0-259.96-116.62-259.96-259.97,0-130.11,97.2-240.93,226.09-257.78l1.04-.14v-116.66h519.95l-.04,246.98.14.26c23.15,43,35.39,91.85,35.39,141.29Z"/><path class="cls-6" d="M1650.44,168.53h-575.73v121.05c-63.15,13.62-120.6,48.79-161.89,99.11-42.07,51.28-65.24,116.02-65.24,182.3,0,158.72,129.13,287.85,287.85,287.85,13.82,0,27.8-1.01,41.53-3.01,53.8,36.4,116.88,55.63,182.44,55.63,143.88,0,266.3-93.54,309.69-222.99v-7.74c-40.95,132.12-164.29,228.35-309.69,228.35-65.24,0-127.99-19.19-181.48-55.48l-.38-.26-.46.07c-13.77,2.02-27.78,3.05-41.64,3.05-157.41,0-285.47-128.06-285.47-285.47,0-65.73,22.98-129.93,64.7-180.79,41.15-50.16,98.5-85.14,161.49-98.5l.94-.2v-120.6h570.97l-.05,266.18.13.26c8.51,16.6,15.49,33.71,20.95,51.26v-7.76c-5.09-15.12-11.33-29.91-18.7-44.33l.05-267.99Z"/><path class="cls-3" d="M1049.2,269.68c-63.96,18.34-121.61,57.66-162.42,110.8-42.33,55.13-64.71,121.01-64.71,190.51,0,172.79,140.57,313.36,313.36,313.36,11.67,0,23.58-.68,35.4-2.01,56.13,35.74,121.33,54.64,188.57,54.64,133.61,0,250.07-74.82,309.69-184.77v-5.05c-58.55,111.34-175.4,187.44-309.69,187.44-66.93,0-131.81-18.84-187.64-54.49l-.36-.23-.42.05c-11.86,1.35-23.83,2.04-35.55,2.04-171.47,0-310.98-139.5-310.98-310.98,0-68.98,22.21-134.36,64.22-189.06,40.68-52.97,98.23-92.11,162.04-110.21l.86-.24v-126.08h617.51v-2.38h-619.89v126.66Z"/><path class="cls-4" d="M1023.69,251.06c-135.89,47.6-227.13,176.06-227.13,319.94,0,186.85,152.01,338.86,338.86,338.86,9.57,0,19.42-.43,29.3-1.28,58.39,35.27,125.7,53.91,194.67,53.91,100.85,0,195.65-39.27,266.96-110.58,15.86-15.86,30.12-32.88,42.73-50.87v-4.17c-13,18.91-27.84,36.77-44.42,53.35-70.86,70.86-165.07,109.88-265.28,109.88-68.67,0-135.67-18.59-193.77-53.77l-.33-.2-.39.03c-9.94.87-19.85,1.31-29.48,1.31-185.54,0-336.48-150.95-336.48-336.48,0-143.15,90.95-270.93,226.33-317.97l.8-.28V119.9h643.01v-2.38h-645.4v133.54Z"/><path class="cls-1" d="M998.19,233.25c-45.09,18.31-85.6,45.26-120.43,80.1-68.8,68.82-106.7,160.32-106.7,257.65s37.89,188.82,106.7,257.64c68.82,68.83,160.33,106.73,257.66,106.73,7.5,0,15.37-.26,23.39-.77,14.01,8.03,28.68,15.31,43.61,21.62,49.84,21.09,102.65,31.78,156.97,31.78s107.12-10.69,156.95-31.77c48.02-20.31,91.1-49.34,128.04-86.28,8.68-8.68,16.9-17.71,24.7-27.05v-3.71c-8.28,10.07-17.08,19.77-26.38,29.07-36.72,36.72-79.54,65.58-127.28,85.77-49.54,20.96-102.04,31.58-156.03,31.58s-106.49-10.63-156.04-31.59c-14.95-6.33-29.64-13.62-43.66-21.67l-.31-.18-.36.02c-8.1.52-16.04.79-23.6.79-96.7,0-187.61-37.66-255.98-106.04-68.36-68.37-106.01-159.27-106.01-255.95s37.64-187.59,106-255.96c34.79-34.8,75.3-61.68,120.38-79.88l.75-.3V94.39h668.52v-2.38h-670.9v141.24Z"/><path class="cls-19" d="M972.68,216.67c-42.11,19.33-80.11,45.79-112.96,78.65-35.72,35.73-63.79,77.4-83.44,123.87-20.39,48.22-30.73,99.3-30.73,151.81s10.34,103.59,30.73,151.82c19.65,46.46,47.72,88.13,83.44,123.85,35.72,35.73,77.4,63.81,123.86,83.46,48.23,20.4,99.32,30.74,151.84,30.74,5.59,0,11.29-.13,17.43-.4,12.93,7.11,26.27,13.58,39.64,19.23,53,22.43,109.16,33.8,166.91,33.8s113.89-11.37,166.89-33.78c51.06-21.6,96.87-52.46,136.14-91.74,2.25-2.25,4.47-4.53,6.66-6.82v-3.46c-2.74,2.9-5.52,5.77-8.35,8.6-39.06,39.06-84.61,69.75-135.38,91.23-52.71,22.29-108.54,33.59-165.96,33.59s-113.27-11.31-165.98-33.61c-13.39-5.67-26.75-12.16-39.71-19.29l-.29-.16h-.33c-6.22.29-12,.43-17.65.43-52.21,0-102.98-10.28-150.92-30.56-46.18-19.53-87.59-47.44-123.1-82.95-35.5-35.51-63.4-76.92-82.93-123.09-20.27-47.93-30.55-98.7-30.55-150.89s10.28-102.96,30.54-150.89c19.52-46.18,47.42-87.6,82.93-123.11,32.83-32.84,70.84-59.24,112.97-78.48l.7-.32V68.89h694.03v-2.38h-696.41v150.16Z"/><path class="cls-17" d="M947.18,200.67c-38.96,19.78-74.45,45.56-105.49,76.61-38.05,38.06-67.96,82.46-88.89,131.97-21.72,51.39-32.74,105.8-32.74,161.75s11.02,110.37,32.75,161.75c20.93,49.5,50.84,93.89,88.89,131.95,38.06,38.06,82.45,67.98,131.96,88.92,51.39,21.74,105.83,32.76,161.78,32.76,3.53,0,7.27-.05,11.43-.17,11.76,6.23,23.77,11.94,35.7,16.99,56.17,23.76,115.67,35.81,176.84,35.81s120.67-12.05,176.83-35.8c49.25-20.83,93.87-49.79,132.87-86.21v-3.27c-39.17,36.94-84.12,66.28-133.79,87.28-55.87,23.63-115.05,35.61-175.9,35.61s-120.04-11.98-175.92-35.62c-11.95-5.06-23.99-10.79-35.78-17.04l-.28-.15h-.31c-4.26.13-8.08.18-11.67.18-55.63,0-109.75-10.96-160.85-32.57-49.22-20.82-93.36-50.56-131.2-88.41-37.84-37.84-67.57-81.98-88.38-131.2-21.6-51.09-32.56-105.2-32.56-160.82s10.95-109.73,32.55-160.82c20.81-49.22,50.55-93.37,88.38-131.21,31.04-31.05,66.55-56.79,105.54-76.5l.65-.33V43.38h719.53v-2.38h-721.91v159.67Z"/><path class="cls-15" d="M921.67,185.34c-35.89,19.88-68.87,44.74-98.03,73.9-40.39,40.4-72.13,87.53-94.34,140.07-23.06,54.54-34.75,112.31-34.75,171.68s11.7,117.14,34.76,171.69c22.22,52.54,53.96,99.66,94.35,140.05,40.39,40.4,87.52,72.15,140.06,94.37,54.55,23.07,112.33,34.77,171.72,34.77,1.26,0,2.51-.02,3.76-.04l1.57-.02c10.42,5.33,21.13,10.33,31.85,14.87,59.33,25.1,122.17,37.83,186.78,37.83s127.44-12.72,186.76-37.81c44.83-18.96,86.03-44.31,122.93-75.57v-3.13c-37.11,31.71-78.63,57.38-123.86,76.51-59.02,24.97-121.55,37.62-185.83,37.62s-126.82-12.66-185.86-37.64c-10.76-4.55-21.51-9.57-31.96-14.93l-.26-.13-2.17.03c-1.24.02-2.48.04-3.72.04-59.07,0-116.53-11.64-170.79-34.59-52.26-22.1-99.13-53.69-139.3-93.87-40.17-40.17-71.74-87.04-93.84-139.3-22.94-54.25-34.57-111.7-34.57-170.76s11.63-116.5,34.57-170.75c22.09-52.26,53.66-99.13,93.84-139.31,29.17-29.17,62.18-54.02,98.11-73.84l.62-.34V17.88h745.04v-2.38h-747.42v169.85Z"/><path class="cls-14" d="M805.61,241.21c-42.72,42.73-76.3,92.58-99.8,148.17-24.4,57.7-36.77,118.81-36.77,181.61s12.37,123.92,36.78,181.62c23.5,55.58,57.08,105.43,99.8,148.15,42.73,42.73,92.57,76.32,148.16,99.83,57.54,24.34,118.47,36.72,181.11,36.79,9.44,4.68,18.78,8.98,27.79,12.79,31.24,13.21,63.39,23.17,96.25,29.83h12.78c-36.98-6.53-73.12-17.22-108.1-32.02-9.04-3.83-18.43-8.15-27.91-12.85l-.25-.12h-.28c-62.42-.03-123.13-12.35-180.46-36.6-55.3-23.39-104.89-56.81-147.4-99.32-42.5-42.51-75.91-92.1-99.3-147.4-24.28-57.41-36.59-118.2-36.59-180.69s12.31-123.27,36.58-180.68c23.38-55.3,56.79-104.9,99.29-147.41,27.24-27.25,57.75-51,90.67-70.6l.58-.35V0h-2.38v170.6c-32.87,19.64-63.34,43.39-90.56,70.62Z"/><path class="cls-14" d="M1447.09,1080h12.79c32.84-6.65,64.99-16.61,96.22-29.81,40.65-17.19,78.47-39.38,113-66.22v-3.01c-34.76,27.23-72.89,49.68-113.92,67.04-34.97,14.79-71.1,25.48-108.08,32.01Z"/><path class="cls-8" d="M1543.67,1080h6.71c5.24-2.03,10.46-4.13,15.66-6.32,36.65-15.5,71.1-34.86,103.06-57.86v-2.93c-32.21,23.34-66.97,42.94-103.99,58.6-7.1,3-14.25,5.84-21.44,8.52Z"/><path class="cls-8" d="M787.57,223.18c-45.05,45.07-80.47,97.64-105.25,156.27-25.73,60.86-38.78,125.31-38.78,191.54s13.05,130.69,38.79,191.55c24.79,58.62,60.2,111.19,105.26,156.25,45.06,45.07,97.63,80.49,156.26,105.29,58.74,24.85,120.96,37.87,184.92,38.72,7.98,3.85,16.04,7.5,23.97,10.85,5.21,2.2,10.44,4.31,15.69,6.34h6.71c-7.2-2.69-14.36-5.52-21.47-8.53-7.97-3.37-16.08-7.05-24.1-10.92l-.24-.11h-.26c-63.75-.82-125.75-13.78-184.29-38.54-58.34-24.68-110.66-59.93-155.5-104.78-44.84-44.84-80.08-97.16-104.75-155.5-25.62-60.57-38.6-124.71-38.6-190.63s12.98-130.05,38.59-190.62c24.67-58.34,59.91-110.66,104.75-155.51,25.3-25.3,53.3-47.8,83.24-66.86l.55-.35V0h-2.38v156.35c-29.87,19.08-57.82,41.56-83.09,66.83Z"/><path class="cls-2" d="M769.53,205.15c-47.39,47.4-84.64,102.7-110.71,164.37-27.07,64.02-40.79,131.81-40.79,201.48s13.73,137.46,40.81,201.49c26.07,61.66,63.32,116.96,110.71,164.35,47.4,47.4,102.7,84.66,164.36,110.74,35.07,14.83,71.32,25.66,108.39,32.42h14.31c-41.74-6.43-82.49-18.01-121.77-34.62-61.38-25.96-116.42-63.05-163.6-110.23-47.17-47.18-84.25-102.22-110.21-163.6-26.95-63.73-40.62-131.21-40.62-200.56s13.66-136.82,40.6-200.55c25.95-61.38,63.03-116.43,110.2-163.61,23.26-23.26,48.76-44.33,75.79-62.61l.52-.35V0h-2.38v142.6c-26.97,18.29-52.41,39.33-75.62,62.55Z"/><path class="cls-2" d="M1612.78,1080c19.45-9.95,38.24-21,56.31-33.12v-2.87c-19.69,13.29-40.25,25.3-61.6,35.99h5.29Z"/><path class="cls-20" d="M751.49,187.12c-49.72,49.74-88.81,107.76-116.16,172.47-28.41,67.18-42.81,138.31-42.81,211.41s14.41,144.23,42.82,211.42c27.36,64.7,66.44,122.72,116.17,172.45,49.73,49.74,107.75,88.83,172.46,116.2,7.45,3.15,14.95,6.13,22.5,8.93h6.94c-9.58-3.43-19.09-7.14-28.51-11.12-64.42-27.25-122.19-66.17-171.7-115.69-49.51-49.52-88.42-107.28-115.66-171.7-28.29-66.89-42.63-137.71-42.63-210.5s14.34-143.59,42.62-210.48c27.24-64.42,66.15-122.19,115.66-171.71,21.14-21.15,44.14-40.64,68.35-57.92l.5-.36V0h-2.38v129.3c-24.14,17.27-47.06,36.72-68.15,57.82Z"/><path class="cls-13" d="M733.46,169.08c-52.06,52.07-92.98,112.82-121.62,180.57-29.74,70.34-44.82,144.81-44.82,221.34s15.08,151.01,44.83,221.35c28.65,67.74,69.57,128.49,121.63,180.55,43.81,43.81,93.76,79.74,148.86,107.1h5.41c-56.59-27.51-107.82-64-152.59-108.78-51.84-51.85-92.59-112.34-121.12-179.8-29.62-70.05-44.64-144.22-44.64-220.43s15.02-150.37,44.63-220.41c28.52-67.46,69.27-127.96,121.11-179.81,19-19.01,39.49-36.79,60.91-52.85l.48-.36V0h-2.38v116.37c-21.33,16.04-41.75,33.77-60.69,52.71Z"/><path class="cls-5" d="M715.42,151.05c-54.39,54.4-97.14,117.88-127.07,188.67-31.08,73.5-46.84,151.31-46.84,231.27s15.76,157.78,46.85,231.29c29.93,70.78,72.69,134.25,127.08,188.65,34.46,34.46,72.56,64.24,113.85,89.06h4.64c-42.44-25.12-81.54-55.48-116.81-90.75-54.17-54.18-96.76-117.4-126.57-187.9-30.96-73.22-46.66-150.72-46.66-230.36s15.69-157.14,46.65-230.35c29.81-70.51,72.39-133.73,126.57-187.91,16.86-16.86,34.85-32.82,53.46-47.43l.46-.36V0h-2.38v103.79c-18.53,14.57-36.43,30.47-53.22,47.26Z"/><path class="cls-10" d="M697.38,133.02c-56.73,56.74-101.32,122.94-132.53,196.77-32.41,76.66-48.85,157.81-48.85,241.21s16.44,164.55,48.86,241.22c31.22,73.82,75.81,140.02,132.54,196.75,26.33,26.33,54.7,50.05,84.93,71.03h4.2c-31.17-21.38-60.39-45.66-87.45-72.71-56.51-56.52-100.93-122.46-132.03-196-32.3-76.38-48.67-157.22-48.67-240.3s16.37-163.91,48.66-240.28c31.09-73.54,75.51-139.49,132.02-196.01,14.51-14.51,29.99-28.52,46.01-41.63l.44-.36V0h-2.38v91.59c-15.93,13.06-31.32,26.99-45.75,41.43Z"/><path class="cls-9" d="M679.34,114.98c-59.06,59.07-105.48,128-137.98,204.87-33.75,79.82-50.86,164.32-50.86,251.14s17.12,171.33,50.88,251.16c32.5,76.86,78.93,145.78,137.99,204.85,18.98,18.99,38.99,36.66,59.95,53h3.89c-21.76-16.79-42.51-35.03-62.16-54.68-58.84-58.85-105.1-127.52-137.48-204.1-33.63-79.53-50.69-163.72-50.69-250.23s17.05-170.68,50.67-250.21c32.38-76.58,78.63-145.26,137.48-204.11,12.09-12.1,25.07-24.05,38.56-35.52l.42-.36V0h-2.38v79.69c-13.39,11.41-26.27,23.28-38.28,35.3Z"/><path class="cls-12" d="M661.31,96.95c-61.39,61.41-109.65,133.06-143.44,212.97-35.08,82.98-52.88,170.82-52.88,261.07,0,45.59,4.61,91.11,13.72,135.33l-.39.4.59.59c8.82,42.5,21.93,84.48,38.97,124.78,33.79,79.9,82.05,151.55,143.45,212.95,12.18,12.18,24.76,23.83,37.72,34.96h3.66c-13.67-11.64-26.91-23.85-39.7-36.65-61.18-61.18-109.27-132.58-142.94-212.2-16.95-40.07-29.99-81.81-38.78-124.07l-.13-.63c-9.15-44.25-13.79-89.83-13.79-135.46,0-89.93,17.73-177.46,52.69-260.14,33.67-79.63,81.75-151.03,142.93-212.21,9.7-9.7,20.16-19.51,31.11-29.15l.4-.36V0h-2.38v68.05c-10.84,9.56-21.2,19.29-30.81,28.9Z"/><polygon class="cls-21" points="338.61 820.33 338.61 845.16 390.3 845.16 358.21 877.25 375.76 894.8 425.4 845.16 425.41 820.33 338.61 820.33"/><path class="cls-21" d="M420.55,865.91c10.13,10.13,16.39,24.11,16.39,39.57,0,30.9-25.05,55.96-55.96,55.96-15.45,0-29.44-6.27-39.57-16.39l17.56-17.55c5.63,5.64,13.41,9.12,22.01,9.12,17.19,0,31.13-13.94,31.13-31.13,0-8.6-3.48-16.38-9.12-22.01l17.56-17.56Z"/><path class="cls-22" d="M308.24,857.54c-23.97,0-43.4,19.43-43.4,43.4v69.38h24.79v-30.17c5.64,2.69,11.95,4.19,18.61,4.19,23.97,0,43.4-19.43,43.4-43.4s-19.43-43.4-43.4-43.4ZM308.24,919.51c-10.26,0-18.57-8.31-18.57-18.57s8.31-18.57,18.57-18.57,18.57,8.31,18.57,18.57-8.31,18.57-18.57,18.57Z"/><path class="cls-22" d="M153.79,919.56l-.04-.07c-.31.04-.63.07-.95.07-4.11,0-7.44-3.33-7.44-7.44v-33.24h20.76v-21.2h-20.76v-28.46h-24.79v28.46h-10.9v21.2h10.9v33.24c0,13.4,8.19,24.9,19.83,29.76,3.82,1.59,8,2.47,12.4,2.47s8.57-.88,12.39-2.47c.95-.39,1.88-.84,2.78-1.32l-14.18-21Z"/><path class="cls-22" d="M213.3,857.54c-23.97,0-43.4,19.43-43.4,43.4s19.42,43.4,43.4,43.4c6.64,0,12.94-1.49,18.57-4.17v4.12h24.79v-41.67c.03-.55.04-1.12.04-1.68,0-23.97-19.43-43.4-43.4-43.4ZM213.3,919.51c-10.26,0-18.57-8.31-18.57-18.57s8.31-18.57,18.57-18.57,18.57,8.31,18.57,18.57-8.31,18.57-18.57,18.57Z"/><polygon class="cls-21" points="1289.27 498.05 1343.3 552.08 1496.18 399.21 1496.19 322.75 1228.93 322.75 1228.93 399.21 1388.1 399.21 1289.27 498.05"/><path class="cls-21" d="M1481.23,463.12l-54.07,54.07c17.36,17.33,28.08,41.29,28.08,67.76,0,52.95-42.91,95.86-95.84,95.86-26.47,0-50.43-10.73-67.76-28.08l-54.07,54.05c31.18,31.18,74.25,50.47,121.83,50.47,95.16,0,172.3-77.14,172.3-172.3,0-47.58-19.29-90.65-50.47-121.83Z"/><path class="cls-21" d="M1135.43,437.34c-73.82,0-133.63,59.83-133.63,133.65s59.81,133.63,133.63,133.63,133.63-59.83,133.63-133.63-59.83-133.65-133.63-133.65ZM1135.43,628.16c-31.59,0-57.19-25.6-57.19-57.17s25.6-57.19,57.19-57.19,57.17,25.6,57.17,57.19-25.6,57.17-57.17,57.17Z"/><path class="cls-22" d="M172.11,172.77c1.75,1.35,2.08,3.87.73,5.63-1.35,1.75-3.87,2.08-5.63.73-6.26-4.83-9.86-12.13-9.86-20.03,0-7.39,3.22-14.39,8.84-19.2.76-.65,1.68-.97,2.61-.97,1.13,0,2.25.47,3.05,1.4,1.44,1.68,1.25,4.21-.44,5.65-3.83,3.29-6.03,8.06-6.03,13.11,0,5.39,2.45,10.38,6.73,13.68Z"/><path class="cls-22" d="M150.17,159.12c0,8.33,3.18,16.23,8.97,22.23,1.54,1.6,1.49,4.13-.1,5.67-1.6,1.54-4.13,1.49-5.67-.11-7.23-7.5-11.21-17.37-11.21-27.79,0-10.49,4.03-20.4,11.33-27.92.79-.81,1.83-1.22,2.88-1.22,1.01,0,2.02.38,2.8,1.13,1.59,1.54,1.62,4.08.08,5.67-5.84,6.01-9.06,13.94-9.06,22.33Z"/><path class="cls-22" d="M133.86,159.13c0,11.53,4.09,22.73,11.52,31.52,1.43,1.69,1.22,4.22-.48,5.65-1.69,1.43-4.22,1.22-5.65-.48-8.65-10.24-13.41-23.27-13.41-36.7,0-14.03,5.15-27.51,14.5-37.96.79-.89,1.89-1.34,2.99-1.34.95,0,1.91.34,2.67,1.02,1.65,1.48,1.79,4.01.31,5.66-8.03,8.97-12.46,20.55-12.46,32.61Z"/><path class="cls-22" d="M117.7,159.26c0,14.96,4.88,29.07,14.12,40.8,1.37,1.74,1.07,4.26-.67,5.63-1.74,1.37-4.26,1.07-5.63-.67-10.36-13.16-15.83-28.98-15.83-45.76,0-17.68,6.33-34.79,17.83-48.19.79-.92,1.92-1.4,3.05-1.4.92,0,1.85.32,2.61.97,1.68,1.44,1.88,3.97.43,5.65-10.25,11.94-15.89,27.2-15.89,42.97Z"/></svg>