<?xml version="1.0" encoding="UTF-8"?><svg id="Layer_1" xmlns="http://www.w3.org/2000/svg" viewBox="0 0 1669.09 1080"><defs><style>.cls-1{font-family:Oswald-Regular, Oswald;font-size:64.96px;}.cls-1,.cls-2{fill:#64f;}.cls-3,.cls-2{stroke-width:0px;}</style></defs><rect class="cls-3" width="1669.09" height="1080"/><rect class="cls-3" width="1669.09" height="1080"/><rect class="cls-3" width="1669.09" height="1080"/><rect class="cls-3" width="1669.09" height="1080"/><path class="cls-2" d="M708.41,1080h5.29c38.45-15.24,79.07-22.97,120.85-22.97s82.4,7.73,120.85,22.97h5.29c-40.03-16.56-82.45-24.97-126.14-24.97s-86.11,8.41-126.14,24.97Z"/><path class="cls-2" d="M834.55,1030.03c-47.94,0-94.48,9.4-138.31,27.94-15.06,6.37-29.56,13.74-43.48,22.03h3.94c12.95-7.55,26.4-14.3,40.32-20.19,43.59-18.44,89.86-27.78,137.53-27.78s93.95,9.35,137.53,27.78c13.93,5.89,27.38,12.64,40.32,20.19h3.94c-13.92-8.29-28.42-15.66-43.48-22.03-43.83-18.54-90.37-27.94-138.31-27.94Z"/><path class="cls-2" d="M834.55,1005.03c-51.31,0-101.12,10.07-148.05,29.92-28.13,11.9-54.46,26.98-78.74,45.06h3.4c23.55-17.26,48.99-31.74,76.12-43.21,46.69-19.75,96.24-29.76,147.27-29.76s100.59,10.01,147.27,29.76c27.13,11.48,52.58,25.95,76.12,43.21h3.4c-24.28-18.08-50.62-33.16-78.74-45.06-46.93-19.85-96.75-29.92-148.05-29.92Z"/><path class="cls-2" d="M834.55,980.03c-54.67,0-107.76,10.73-157.79,31.89-39.84,16.85-76.31,39.71-108.74,68.08h3.02c31.84-27.54,67.55-49.77,106.5-66.24,49.78-21.06,102.61-31.73,157.01-31.73s107.23,10.68,157.01,31.73c38.94,16.47,74.66,38.7,106.5,66.24h3.02c-32.44-28.37-68.9-51.23-108.74-68.08-50.03-21.16-103.12-31.89-157.79-31.89Z"/><path class="cls-2" d="M834.55,955.03c-58.03,0-114.4,11.39-167.53,33.87-50.79,21.48-96.42,52.14-135.65,91.11h2.86c38.73-38.11,83.64-68.15,133.57-89.26,52.88-22.37,108.99-33.71,166.75-33.71s113.87,11.34,166.75,33.71c49.93,21.12,94.84,51.16,133.57,89.26h2.86c-39.24-38.97-84.86-69.62-135.65-91.11-53.13-22.47-109.5-33.87-167.53-33.87Z"/><path class="cls-2" d="M1011.81,965.87c-56.23-23.78-115.87-35.84-177.27-35.84s-121.04,12.06-177.27,35.84c-54.23,22.94-102.91,55.75-144.67,97.51-5.42,5.42-10.69,10.97-15.81,16.62h2.7c4.71-5.16,9.55-10.24,14.52-15.21,41.58-41.58,90.04-74.25,144.04-97.08,55.98-23.68,115.36-35.68,176.49-35.68s120.51,12.01,176.49,35.68c54,22.84,102.46,55.5,144.04,97.08,4.97,4.97,9.81,10.04,14.52,15.21h2.7c-5.12-5.65-10.39-11.2-15.81-16.62-41.76-41.76-90.44-74.57-144.67-97.51Z"/><path class="cls-2" d="M1021.55,942.84c-59.33-25.09-122.24-37.82-187.01-37.82s-127.68,12.72-187.01,37.82c-57.21,24.2-108.56,58.81-152.61,102.86-10.99,10.99-21.38,22.43-31.18,34.3h2.61c9.45-11.37,19.44-22.34,29.99-32.88,43.87-43.87,95-78.33,151.98-102.43,59.08-24.99,121.73-37.66,186.23-37.66s127.15,12.67,186.23,37.66c56.97,24.1,108.11,58.56,151.98,102.43,10.55,10.55,20.54,21.52,29.99,32.88h2.61c-9.8-11.87-20.19-23.31-31.18-34.3-44.05-44.05-95.4-78.66-152.61-102.86Z"/><path class="cls-2" d="M1031.29,919.82c-62.43-26.4-128.62-39.79-196.75-39.79s-134.32,13.39-196.75,39.79c-60.2,25.46-114.21,61.87-160.55,108.21-16.39,16.39-31.52,33.74-45.38,51.97h2.51c13.55-17.73,28.33-34.6,44.29-50.56,46.16-46.16,99.96-82.42,159.92-107.78,62.18-26.3,128.11-39.63,195.97-39.63s133.79,13.33,195.97,39.63c59.96,25.36,113.76,61.62,159.92,107.78,15.96,15.96,30.73,32.83,44.29,50.56h2.51c-13.86-18.24-28.99-35.59-45.38-51.97-46.34-46.34-100.36-82.75-160.55-108.21Z"/><path class="cls-2" d="M1041.03,896.79c-65.52-27.71-134.99-41.77-206.49-41.77s-140.96,14.05-206.49,41.77c-63.17,26.72-119.86,64.93-168.49,113.55-21.66,21.66-41.25,44.93-58.68,69.65h2.44c17.16-24.2,36.41-46.99,57.65-68.24,48.45-48.45,104.92-86.51,167.86-113.13,65.27-27.61,134.48-41.61,205.71-41.61s140.43,14,205.71,41.61c62.94,26.62,119.41,64.68,167.86,113.13,21.25,21.25,40.49,44.04,57.65,68.24h2.44c-17.43-24.72-37.02-47.99-58.68-69.65-48.63-48.63-105.32-86.83-168.49-113.55Z"/><path class="cls-2" d="M1050.77,873.77c-68.62-29.02-141.37-43.74-216.22-43.74s-147.6,14.72-216.22,43.74c-66.16,27.98-125.51,67.99-176.43,118.9-26.84,26.84-50.65,56.04-71.26,87.33h2.4c20.37-30.77,43.84-59.48,70.28-85.92,50.73-50.73,109.88-90.59,175.8-118.47,68.37-28.92,140.86-43.58,215.44-43.58s147.07,14.66,215.44,43.58c65.92,27.88,125.06,67.74,175.8,118.47,26.43,26.43,49.9,55.15,70.28,85.92h2.4c-20.61-31.29-44.42-60.49-71.26-87.33-50.92-50.92-110.28-90.92-176.43-118.9Z"/><path class="cls-2" d="M1243.46,976.41c31.54,31.54,59.06,66.19,82.31,103.59h2.35c-23.47-37.93-51.3-73.06-83.24-105.01-53.21-53.2-115.24-95.01-184.37-124.25-30.33-12.83-61.43-22.97-93.13-30.42h-9.03c34.57,7.56,68.43,18.32,101.39,32.26,68.9,29.14,130.71,70.8,183.73,123.82Z"/><path class="cls-2" d="M424.21,974.99c-31.94,31.94-59.77,67.07-83.24,105.01h2.35c23.25-37.4,50.77-72.05,82.31-103.59,53.02-53.02,114.84-94.68,183.73-123.82,32.95-13.94,66.82-24.7,101.39-32.26h-9.03c-31.71,7.45-62.81,17.59-93.13,30.42-69.13,29.24-131.16,71.04-184.37,124.25Z"/><path class="cls-2" d="M1261.14,958.73c36.58,36.58,67.97,77.18,93.83,121.27h2.31c-26.06-44.63-57.75-85.7-94.73-122.69-55.49-55.49-120.2-99.09-192.31-129.6-6.08-2.57-12.19-5.03-18.32-7.39h-5.62c7.77,2.92,15.49,5.99,23.17,9.23,71.88,30.4,136.36,73.86,191.67,129.17Z"/><path class="cls-2" d="M406.54,957.31c-36.98,36.98-68.67,78.06-94.73,122.69h2.31c25.86-44.09,57.26-84.69,93.83-121.27,55.31-55.31,119.8-98.77,191.67-129.17,7.67-3.25,15.4-6.32,23.17-9.23h-5.62c-6.14,2.36-12.25,4.82-18.32,7.39-72.11,30.5-136.82,74.1-192.31,129.6Z"/><path class="cls-2" d="M1383.77,1080h2.28c-28.42-51.37-63.85-98.4-105.82-140.36-48.89-48.89-104.64-88.91-166.13-119.31h-4.56c62.75,30.52,119.57,71.02,169.28,120.72,41.57,41.57,76.71,88.12,104.95,138.95Z"/><path class="cls-2" d="M283.04,1080h2.28c28.24-50.83,63.38-97.38,104.95-138.95,49.7-49.7,106.53-90.21,169.28-120.72h-4.56c-61.49,30.4-117.24,70.42-166.13,119.31-41.96,41.97-77.39,89-105.82,140.36Z"/><path class="cls-2" d="M1412.2,1080h2.27c-30.59-58.15-69.65-111.14-116.55-158.04-39.59-39.59-83.53-73.59-131.23-101.63h-3.98c48.71,28.28,93.51,62.75,133.8,103.05,46.51,46.51,85.28,99.03,115.7,156.63Z"/><path class="cls-2" d="M254.63,1080h2.27c30.42-57.6,69.19-110.12,115.7-156.63,40.29-40.29,85.09-74.77,133.8-103.05h-3.98c-47.71,28.04-91.64,62.04-131.23,101.63-46.91,46.91-85.97,99.9-116.55,158.04Z"/><path class="cls-2" d="M1440.32,1080h2.24c-32.59-64.95-75.17-123.91-126.97-175.72-31.44-31.44-65.52-59.48-101.97-83.96h-3.61c37.28,24.79,72.1,53.31,104.16,85.37,51.42,51.41,93.71,109.9,126.15,174.3Z"/><path class="cls-2" d="M226.53,1080h2.24c32.43-64.4,74.73-122.89,126.15-174.3,32.06-32.06,66.88-60.58,104.16-85.37h-3.61c-36.45,24.48-70.53,52.52-101.97,83.96-51.81,51.81-94.38,110.77-126.97,175.72Z"/><path class="cls-2" d="M198.67,1080h2.22c34.3-71.24,80.06-135.69,136.35-191.98,24.6-24.6,50.77-47.19,78.38-67.69h-3.35c-26.89,20.13-52.41,42.25-76.44,66.28-56.68,56.68-102.71,121.61-137.15,193.4Z"/><path class="cls-2" d="M1468.2,1080h2.22c-34.44-71.78-80.47-136.72-137.15-193.4-24.03-24.03-49.55-46.15-76.44-66.28h-3.35c27.61,20.5,53.78,43.09,78.38,67.69,56.29,56.29,102.05,120.75,136.35,191.98Z"/><path class="cls-2" d="M171.06,1080h2.2c36.03-78.08,85.16-148.53,146.3-209.66,17.69-17.69,36.16-34.36,55.37-50.01h-3.17c-18.58,15.24-36.46,31.45-53.62,48.6-61.52,61.52-110.92,132.44-147.08,211.07Z"/><path class="cls-2" d="M1495.83,1080h2.2c-36.17-78.63-85.56-149.55-147.08-211.07-17.15-17.15-35.04-33.36-53.62-48.6h-3.17c19.21,15.65,37.68,32.33,55.37,50.01,61.13,61.13,110.26,131.58,146.3,209.66Z"/><path class="cls-2" d="M143.64,1080h2.19c37.66-84.95,90.1-161.39,156.05-227.34,11.17-11.17,22.65-21.95,34.41-32.34h-3.02c-11.2,9.95-22.14,20.26-32.8,30.92-66.34,66.34-119.05,143.25-156.83,228.75Z"/><path class="cls-2" d="M1523.26,1080h2.19c-37.78-85.5-90.49-162.42-156.83-228.75-10.66-10.66-21.6-20.97-32.8-30.92h-3.02c11.76,10.39,23.24,21.17,34.41,32.34,65.95,65.95,118.4,142.39,156.05,227.34Z"/><path class="cls-2" d="M1550.53,1080h2.18c-39.29-92.39-95.27-175.3-166.4-246.43-4.48-4.48-9-8.89-13.56-13.24h-2.92c5.08,4.81,10.1,9.7,15.07,14.66,70.75,70.75,126.46,153.18,165.64,245.01Z"/><path class="cls-2" d="M116.39,1080h2.18c39.18-91.84,94.89-174.26,165.64-245.01,4.96-4.96,9.99-9.84,15.07-14.66h-2.92c-4.57,4.35-9.09,8.77-13.56,13.24-71.13,71.13-127.11,154.04-166.4,246.43Z"/><path class="cls-2" d="M89.29,1080h2.17c1.03-2.51,2.06-5.01,3.12-7.51,39.93-94.42,96.78-179.23,168.97-252.17h-2.81c-71.71,72.8-128.22,157.34-168,251.39-1.17,2.76-2.31,5.52-3.44,8.29Z"/><path class="cls-2" d="M1577.63,1080h2.17c-1.13-2.77-2.28-5.53-3.44-8.29-39.78-94.04-96.29-178.58-168-251.39h-2.81c72.19,72.94,129.03,157.75,168.97,252.17,1.06,2.5,2.09,5,3.12,7.51Z"/><path class="cls-2" d="M62.34,1080h2.15c2.29-5.77,4.64-11.52,7.06-17.25,38.01-89.86,90.86-171.28,157.3-242.43h-2.74c-66,70.99-118.55,152.15-156.41,241.65-2.53,5.99-4.98,12-7.37,18.03Z"/><path class="cls-2" d="M1604.59,1080h2.15c-2.39-6.03-4.84-12.04-7.37-18.03-37.86-89.5-90.4-170.66-156.41-241.65h-2.74c66.44,71.15,119.3,152.57,157.3,242.43,2.42,5.73,4.77,11.48,7.06,17.25Z"/><path class="cls-2" d="M1631.43,1080h2.14c-3.56-9.3-7.28-18.56-11.17-27.76-36-85.12-84.92-162.92-145.72-231.91h-2.66c61.2,69.16,110.39,147.22,146.54,232.69,3.79,8.95,7.4,17.95,10.87,26.99Z"/><path class="cls-2" d="M35.52,1080h2.14c3.47-9.04,7.08-18.04,10.87-26.99,36.15-85.47,85.34-163.53,146.54-232.69h-2.66c-60.81,68.99-109.72,146.78-145.72,231.91-3.89,9.21-7.61,18.46-11.17,27.76Z"/><path class="cls-2" d="M8.81,1080h2.13c4.57-12.32,9.42-24.56,14.56-36.72,34.35-81.22,80.15-155.94,136.55-222.95h-2.61c-56.03,66.83-101.57,141.28-135.78,222.17-5.25,12.42-10.19,24.92-14.85,37.5Z"/><path class="cls-2" d="M1658.15,1080h2.13c-4.66-12.58-9.6-25.09-14.85-37.5-34.21-80.89-79.75-155.34-135.78-222.17h-2.61c56.4,67.01,102.19,141.73,136.55,222.95,5.14,12.16,9.99,24.41,14.56,36.72Z"/><path class="cls-2" d="M1669.09,1039.5v-5.21c-.22-.51-.42-1.02-.64-1.54-32.47-76.77-74.86-147.9-126.49-212.43h-2.55c51.97,64.72,94.6,136.12,127.2,213.21.84,1.99,1.66,3.98,2.48,5.97Z"/><path class="cls-2" d="M0,1034.29v5.21c.82-1.99,1.64-3.98,2.48-5.97,32.61-77.09,75.23-148.49,127.2-213.21h-2.55c-51.63,64.54-94.02,135.66-126.49,212.43-.22.51-.42,1.02-.64,1.54Z"/><path class="cls-2" d="M1669.09,974.07c-26.78-54.41-58.65-105.78-95.37-153.74h-2.53c37.86,49.29,70.58,102.19,97.9,158.3v-4.56Z"/><path class="cls-2" d="M0,978.63c27.32-56.11,60.03-109.02,97.9-158.3h-2.53C58.65,868.29,26.78,919.66,0,974.07v4.56Z"/><path class="cls-2" d="M1669.09,920.21c-19.29-34.64-40.7-67.96-64.14-99.88h-2.49c24.45,33.18,46.68,67.9,66.62,104.04v-4.16Z"/><path class="cls-2" d="M0,924.36c19.94-36.14,42.18-70.85,66.62-104.04h-2.49C40.7,852.24,19.29,885.56,0,920.21v4.16Z"/><path class="cls-2" d="M0,874.64c11.32-18.5,23.24-36.61,35.77-54.31h-2.44C21.69,836.8,10.59,853.64,0,870.81v3.82Z"/><path class="cls-2" d="M1669.09,870.81c-10.59-17.17-21.69-34.01-33.33-50.49h-2.44c12.53,17.7,24.45,35.81,35.77,54.31v-3.82Z"/><path class="cls-2" d="M1669.09,824.62c-.97-1.44-1.94-2.86-2.92-4.3h-2.42c1.79,2.63,3.57,5.26,5.34,7.91v-3.61Z"/><path class="cls-2" d="M0,828.24c1.77-2.65,3.55-5.28,5.34-7.91h-2.42c-.97,1.43-1.95,2.86-2.92,4.3v3.61Z"/><text class="cls-1" transform="translate(762.02 816.03)"><tspan x="0" y="0">#0001</tspan></text></svg>