<?xml version="1.0" encoding="UTF-8"?><svg id="Layer_1" xmlns="http://www.w3.org/2000/svg" viewBox="0 0 464.48 212.89"><defs><style>.cls-1{fill:#64f;}.cls-1,.cls-2{stroke-width:0px;}.cls-2{fill:#fff;}</style></defs><polygon class="cls-1" points="324.93 0 324.93 35.24 398.29 35.24 352.74 80.8 377.64 105.7 448.11 35.24 448.11 0 324.93 0"/><path class="cls-1" d="M441.22,64.7c14.37,14.37,23.26,34.22,23.26,56.15,0,43.86-35.56,79.42-79.42,79.42-21.93,0-41.78-8.89-56.15-23.26l24.92-24.91c7.99,8,19.03,12.94,31.23,12.94,24.4,0,44.18-19.78,44.18-44.19,0-12.2-4.94-23.24-12.94-31.23l24.92-24.92Z"/><path class="cls-2" d="M281.82,52.82c-34.02,0-61.59,27.58-61.59,61.6v98.47h35.18v-42.82c8.01,3.81,16.97,5.94,26.41,5.94,34.01,0,61.59-27.58,61.59-61.59s-27.58-61.6-61.59-61.6ZM281.82,140.77c-14.56,0-26.36-11.8-26.36-26.35s11.8-26.36,26.36-26.36,26.35,11.8,26.35,26.36-11.8,26.35-26.35,26.35Z"/><path class="cls-2" d="M62.61,140.83l-.06-.09c-.44.06-.89.09-1.34.09-5.84,0-10.56-4.72-10.56-10.56v-47.18h29.46v-30.09h-29.46V12.62H15.46v40.39H0v30.09h15.46v47.18c0,19.02,11.62,35.34,28.15,42.23,5.42,2.26,11.36,3.51,17.59,3.51s12.17-1.25,17.58-3.51c1.35-.56,2.67-1.19,3.95-1.87l-20.13-29.8Z"/><path class="cls-2" d="M147.07,52.82c-34.02,0-61.59,27.58-61.59,61.6s27.57,61.59,61.59,61.59c9.43,0,18.37-2.12,26.36-5.92v5.85h35.18v-59.14c.04-.79.05-1.59.05-2.38,0-34.02-27.58-61.6-61.59-61.6ZM147.07,140.77c-14.56,0-26.36-11.8-26.36-26.35s11.8-26.36,26.36-26.36,26.35,11.8,26.35,26.36-11.8,26.35-26.35,26.35Z"/></svg>